<?xml version="1.0" encoding="iso-8859-1"?>
<!-- Generator: Adobe Illustrator 19.0.0, SVG Export Plug-In . SVG Version: 6.00 Build 0)  -->
<svg version="1.1" id="Capa_1" xmlns="http://www.w3.org/2000/svg" xmlns:xlink="http://www.w3.org/1999/xlink" x="0px" y="0px"
	 viewBox="0 0 446.717 446.717" style="enable-background:new 0 0 446.717 446.717;" xml:space="preserve">
<path id="XMLID_219_" d="M229.241,170.738C229.241,110.78,278.021,62,337.98,62c5.247,0,9.5,4.253,9.5,9.5s-4.253,9.5-9.5,9.5
	c-49.482,0-89.739,40.257-89.739,89.738c0,5.247-4.253,9.5-9.5,9.5S229.241,175.985,229.241,170.738z M381.73,249.108
	c-4.578,2.563-6.213,8.351-3.65,12.93c1.741,3.11,4.97,4.862,8.299,4.862c1.57,0,3.163-0.391,4.631-1.212
	c34.361-19.229,55.708-55.612,55.708-94.95c0-5.247-4.253-9.5-9.5-9.5s-9.5,4.253-9.5,9.5
	C427.717,203.204,410.096,233.234,381.73,249.108z M308.779,171.348c0-16.101,13.1-29.2,29.201-29.2
	c16.101,0,29.199,13.1,29.199,29.2c0,16.102-13.099,29.2-29.199,29.2C321.878,200.548,308.779,187.449,308.779,171.348z
	 M327.779,171.348c0,5.624,4.576,10.2,10.201,10.2c5.624,0,10.199-4.576,10.199-10.2s-4.575-10.2-10.199-10.2
	C332.355,161.147,327.779,165.724,327.779,171.348z M140.998,273.781c1.364,0,2.75-0.295,4.063-0.918l109.196-51.774
	c4.741-2.248,6.762-7.913,4.514-12.654c-2.248-4.74-7.914-6.76-12.654-4.514l-109.196,51.774c-4.741,2.248-6.762,7.913-4.514,12.654
	C134.032,271.776,137.442,273.781,140.998,273.781z M433.633,375.217c0,5.247-4.253,9.5-9.5,9.5H9.502c-5.247,0-9.5-4.253-9.5-9.5
	s4.253-9.5,9.5-9.5h30.651c-0.035-0.333-0.053-0.671-0.053-1.013c0-5.247,4.253-9.5,9.5-9.5h9.183l-16.626-42.977H9.5
	c-5.247,0-9.5-4.253-9.5-9.5s4.253-9.5,9.5-9.5h13.799c-0.027-0.431-0.042-0.864-0.042-1.302V281.43
	c0-11.195,9.107-20.303,20.302-20.303h63.231c11.195,0,20.303,9.107,20.303,20.303v10.496c0,0.438-0.014,0.871-0.042,1.302h35.273
	l126.553-60.244c-18.111-14.457-29.735-36.715-29.735-61.636c0-43.469,35.365-78.833,78.835-78.833
	c43.468,0,78.832,35.364,78.832,78.833c0,33.536-21.048,62.248-50.627,73.619L347.19,355.204h16.833c5.247,0,9.5,4.253,9.5,9.5
	c0,0.342-0.018,0.68-0.053,1.013h50.664C429.379,365.717,433.633,369.97,433.633,375.217z M337.98,231.182
	c32.992,0,59.832-26.842,59.832-59.834s-26.84-59.833-59.832-59.833c-32.993,0-59.835,26.841-59.835,59.833
	S304.987,231.182,337.98,231.182z M106.792,293.228c0.694,0,1.303-0.608,1.303-1.302V281.43c0-0.694-0.609-1.303-1.303-1.303H43.56
	c-0.694,0-1.302,0.608-1.302,1.303v10.496c0,0.693,0.608,1.302,1.302,1.302H106.792z M82.761,312.228H62.529l10.116,26.147
	L82.761,312.228z M324.636,355.204l-18.824-109.239l-137.257,65.341c-1.276,0.606-2.671,0.922-4.083,0.922h-61.338l-16.628,42.977
	h14.25c5.247,0,9.5,4.253,9.5,9.5c0,0.342-0.018,0.68-0.053,1.013h193.219c-0.035-0.333-0.053-0.671-0.053-1.013
	c0-5.247,4.253-9.5,9.5-9.5H324.636z M346.077,249.769c-6.746,0.693-13.79,0.497-20.424-0.55l10.259,59.54L346.077,249.769z"/>
<g>
</g>
<g>
</g>
<g>
</g>
<g>
</g>
<g>
</g>
<g>
</g>
<g>
</g>
<g>
</g>
<g>
</g>
<g>
</g>
<g>
</g>
<g>
</g>
<g>
</g>
<g>
</g>
<g>
</g>
</svg>
