<?xml version="1.0" encoding="utf-8"?>
<!-- Generator: Adobe Illustrator 15.0.0, SVG Export Plug-In . SVG Version: 6.00 Build 0)  -->
<!DOCTYPE svg PUBLIC "-//W3C//DTD SVG 1.1//EN" "http://www.w3.org/Graphics/SVG/1.1/DTD/svg11.dtd">
<svg version="1.1" id="Layer_1" xmlns="http://www.w3.org/2000/svg" xmlns:xlink="http://www.w3.org/1999/xlink" x="0px" y="0px"
	 width="420px" height="406px" viewBox="45.5 53.5 420 406" fill="#FFFFFF" xml:space="preserve">
<path id="tools-3-icon" fill="#FFFFFF" d="M367.688,441.087L170.489,243.602c-8.079-8.076-19.128-12.496-30.55-12.21
	c-23.191,0.583-46.226-8.076-63.6-25.452c-25.198-25.198-36.604-63.725-14.774-107.062l57.145,57.144
	c11.777-3.237,27.442-18.793,30.695-30.697L92.261,68.178c43.835-22.071,81.837-10.449,107.062,14.776
	c17.092,17.091,26.039,40.138,25.456,63.616c-0.281,11.421,4.132,22.459,12.211,30.537l197.198,197.48
	c18.33,18.334,18.33,48.166,0.001,66.499C415.812,459.458,386.069,459.468,367.688,441.087z M142.016,208.682
	c15.255-1.002,30.197,4.631,41.01,15.441l200.669,200.958c9.53,9.529,24.954,9.529,34.488-0.001
	c9.506-9.508,9.506-24.979-0.002-34.484L217.508,189.637c-10.793-10.792-16.433-25.743-15.444-40.971
	c2.399-37.02-27.324-69.453-65.821-68.518l35.989,35.986c3.291,8.824-3.957,27.936-17.142,41.919
	c-14.862,15.766-36.336,24.238-45.57,20.792l-36.045-36.043C72.39,180.855,104.762,211.131,142.016,208.682z M400.055,421.493
	c-7.87,0-14.254-6.382-14.254-14.252c0-7.872,6.384-14.253,14.254-14.253c7.871,0,14.251,6.381,14.251,14.253
	C414.306,415.111,407.926,421.493,400.055,421.493z M442.724,81.639c-25.768-25.765-67.466-25.767-93.233,0l-82.845,82.845
	l16.456,16.457l82.847-82.844c16.667-16.668,43.647-16.672,60.316,0c16.642,16.642,16.643,43.674,0,60.317l-82.844,82.846
	l16.457,16.458l82.846-82.846C468.426,149.167,468.426,107.343,442.724,81.639z M409.044,136.791c-3.101-3.098-8.122-3.098-11.223,0
	l-78.688,78.687l11.223,11.223l78.688-78.688C412.144,144.913,412.144,139.89,409.044,136.791z M375.867,114.574l-78.818,78.819
	l11.222,11.222l78.819-78.819c3.099-3.1,3.099-8.122,0-11.222C383.99,111.476,378.968,111.476,375.867,114.574z M206.464,321.395
	L138.9,388.961c-4.988,4.986-9.175,10.688-12.442,16.943l-3.783,7.238l-27.271,13.931l-3.27-3.27l13.414-28.013l7.091-3.704
	c6.255-3.267,11.955-7.451,16.944-12.442l67.565-67.565l-16.458-16.458l-67.568,67.568c-3.315,3.315-7.104,6.099-11.26,8.268
	l-13.96,7.292l-23.878,49.862l26.892,26.89l48.653-24.853l0.3-0.153l7.217-13.813c2.174-4.159,4.956-7.947,8.271-11.262
	l67.567-67.566L206.464,321.395z"/>
</svg>
