<?xml version="1.0" encoding="utf-8"?>
<!-- Svg Vector Icons : http://www.onlinewebfonts.com/icon -->
<!DOCTYPE svg PUBLIC "-//W3C//DTD SVG 1.1//EN" "http://www.w3.org/Graphics/SVG/1.1/DTD/svg11.dtd">
<svg version="1.1" xmlns="http://www.w3.org/2000/svg" xmlns:xlink="http://www.w3.org/1999/xlink" x="0px" y="0px" viewBox="0 0 1000 1000" enable-background="new 0 0 1000 1000" xml:space="preserve">
<metadata> Svg Vector Icons : http://www.onlinewebfonts.com/icon </metadata>
<g><path fill="none" enable-background="new" d="M56,10"/><path d="M319.8,646.2h129.4v51H319.8V646.2z"/><path d="M319.8,418.2h129.4v51H319.8V418.2z"/><path d="M319.8,530.7h94.1v54.1h-94.1V530.7z"/><path d="M833.1,560.3c0,100.4-81.4,181.8-181.8,181.8s-181.8-81.4-181.8-181.8c0-100.4,81.4-181.8,181.8-181.8C751.6,378.5,833.1,459.9,833.1,560.3z M651.2,419.8c-77.6,0-140.6,62.9-140.6,140.6c0,77.6,62.9,140.6,140.6,140.6c77.6,0,140.6-62.9,140.6-140.6C791.8,482.7,728.8,419.8,651.2,419.8L651.2,419.8z"/><path d="M666.6,583.5c0,4.9-5.6,8.9-12.4,8.9h-9.9c-6.9,0-12.4-4-12.4-8.9V478.1c0-4.9,5.6-8.9,12.4-8.9h9.9c6.9,0,12.4,4,12.4,8.9V583.5z"/><path d="M748.4,560.3c4.9,0,8.9,5.1,8.9,11.5v9.2c0,6.3-4,11.5-8.9,11.5H642.9c-4.9,0-8.9-5.1-8.9-11.5v-9.2c0-6.3,4-11.5,8.9-11.5H748.4z"/><path d="M894,171.5h-85.9c-5.6-21.7-28.4-38-55.7-38H651.9c0.4-2.8,0.7-5.7,0.7-8.6c0-37.1-35.6-67.3-79.5-67.3c-43.8,0-79.5,30.2-79.5,67.3c0,2.9,0.3,5.8,0.7,8.6H393.9c-27.2,0-50,16.3-55.6,38H254c-29.9,0-51.6,17.2-51.6,41v730.9c0,25.3,23.7,46.6,51.6,46.6h640c27.6,0,50-20.9,50-46.6V212.5C944,188.4,923.5,171.5,894,171.5L894,171.5z M886.8,931.3H259.5v-701h77.3v38l472.7,0v-38h77.3L886.8,931.3L886.8,931.3z"/></g>
</svg>